<svg viewBox="0 0 1024 1024" xmlns="http://www.w3.org/2000/svg" id="图层_1">
    <defs>
        <style>
            .cls-1{fill:#93ede7;}.cls-2{fill:#c1f8f4;}.cls-3{fill:#5ea55c;}.cls-4{fill:#8bc852;}.cls-5{fill:#523838;}.cls-6{fill:#664545;}.cls-7{fill:none;}.cls-8{fill:#c8bec3;}.cls-9{fill:#5ea570;}.cls-10{fill:#aad540;}
        </style>
    </defs>
    <circle r="400" cy="508.11" cx="512" class="cls-1"></circle>
    <path d="M512,108.11a398.29,398.29,0,0,0-185.46,45.53,382.93,382.93,0,0,0-9,82.46c0,210.72,170.82,381.54,381.55,381.54A379.69,379.69,0,0,0,909.3,554.56a404.75,404.75,0,0,0,2.7-46.45C912,287.2,732.91,108.11,512,108.11Z"
          class="cls-2"></path>
    <path d="M699.13,617.64c-210.73,0-381.55-170.82-381.55-381.54a382.93,382.93,0,0,1,9-82.46C199,220.5,112,354.13,112,508.11a398.08,398.08,0,0,0,61.59,213.31H850.38A397.65,397.65,0,0,0,909.3,554.56,379.69,379.69,0,0,1,699.13,617.64Z"
          class="cls-1"></path>
    <circle r="190.28" cy="325.03" cx="308.97" class="cls-3"></circle>
    <path d="M309,134.75a191.11,191.11,0,0,0-36.2,3.48,189.55,189.55,0,0,0-19,83c0,105.09,85.19,190.28,190.28,190.28A190.93,190.93,0,0,0,480.22,408a189.42,189.42,0,0,0,19-83C499.25,219.94,414.06,134.75,309,134.75Z"
          class="cls-4"></path>
    <rect height="351.99" width="33.53" y="370.16" x="280.17" class="cls-5"></rect>
    <rect height="351.99" width="28.66" y="370.41" x="293.38" class="cls-6"></rect>
    <line y2="302.36" x2="434.29" y1="297.57" x1="191.77" class="cls-7"></line>
    <circle r="188.5" cy="412.25" cx="680.18" class="cls-3"></circle>
    <path d="M680.18,223.75a189.09,189.09,0,0,0-35.86,3.45,187.7,187.7,0,0,0-18.85,82.23c0,104.1,84.4,188.5,188.5,188.5a189.17,189.17,0,0,0,35.86-3.45,187.84,187.84,0,0,0,18.84-82.23C868.67,308.14,784.28,223.75,680.18,223.75Z"
          class="cls-4"></path>
    <rect height="241.03" width="33.53" y="480.4" x="649.17" class="cls-5"></rect>
    <rect height="241.03" width="28.66" y="480.57" x="662.37" class="cls-6"></rect>
    <path d="M704.43,721.42,411.11,895.24A400.41,400.41,0,0,0,512,908.11c142.48,0,267.53-74.51,338.38-186.69Z"
          class="cls-8"></path>
    <path d="M173.59,721.42A400.66,400.66,0,0,0,411.11,895.24L704.43,721.42Z" class="cls-9"></path>
    <path d="M615.52,401l88.13-34.56A55.4,55.4,0,0,0,615.52,401Z" class="cls-7"></path>
    <path d="M614.69,410.48a55.41,55.41,0,1,0,89-44.08L615.52,401A55.35,55.35,0,0,0,614.69,410.48Z"
          class="cls-7"></path>
    <path d="M703.65,366.4A55.42,55.42,0,1,1,615.52,401l-24.58,9.64a79.16,79.16,0,1,0,137.27-53.83Z"
          class="cls-6"></path>
    <circle r="91.44" cy="370.28" cx="573.06" class="cls-10"></circle>
    <circle r="66.19" cy="351.29" cx="749.25" class="cls-10"></circle>
    <path d="M301.11,255.09A55.94,55.94,0,0,0,245.17,311H357A55.94,55.94,0,0,0,301.11,255.09Z" class="cls-7"></path>
    <path d="M245.17,311A55.94,55.94,0,0,0,357,311H245.17Z" class="cls-7"></path>
    <path d="M357,311h0a55.94,55.94,0,0,1-111.87,0h-24A79.91,79.91,0,0,0,381,311H357Z" class="cls-6"></path>
    <circle r="68.51" cy="276.84" cx="240.46" class="cls-10"></circle>
    <circle r="107.23" cy="238.12" cx="401.38" class="cls-10"></circle>
</svg>
